<mxfile host="app.diagrams.net" agent="Mozilla/5.0 (X11; Ubuntu; Linux x86_64; rv:132.0) Gecko/20100101 Firefox/132.0" version="24.8.4">
  <diagram name="Page-1" id="jbT9atITXXqAvsMD02KV">
    <mxGraphModel dx="2173" dy="445" grid="1" gridSize="10" guides="1" tooltips="1" connect="1" arrows="1" fold="1" page="1" pageScale="1" pageWidth="200" pageHeight="160" math="1" shadow="0">
      <root>
        <mxCell id="0" />
        <mxCell id="1" parent="0" />
        <mxCell id="0DP7704pf6pHfkwj0pEW-3" value="&lt;font style=&quot;font-size: 24px;&quot;&gt;$$&amp;gt;$$&lt;/font&gt;" style="ellipse;whiteSpace=wrap;html=1;aspect=fixed;fillColor=#F0F0F0;" vertex="1" parent="1">
          <mxGeometry x="-880.75" y="220.25" width="40" height="40" as="geometry" />
        </mxCell>
        <mxCell id="0DP7704pf6pHfkwj0pEW-4" value="" style="endArrow=classic;html=1;rounded=0;entryX=0;entryY=0;entryDx=0;entryDy=0;exitX=1;exitY=0.5;exitDx=0;exitDy=0;" edge="1" parent="1" source="0DP7704pf6pHfkwj0pEW-35" target="0DP7704pf6pHfkwj0pEW-3">
          <mxGeometry width="50" height="50" relative="1" as="geometry">
            <mxPoint x="-959.5" y="170.25" as="sourcePoint" />
            <mxPoint x="-880.75" y="201.25" as="targetPoint" />
            <Array as="points">
              <mxPoint x="-912" y="200" />
            </Array>
          </mxGeometry>
        </mxCell>
        <mxCell id="0DP7704pf6pHfkwj0pEW-5" value="" style="endArrow=classic;html=1;rounded=0;entryX=0;entryY=1;entryDx=0;entryDy=0;exitX=1;exitY=0.5;exitDx=0;exitDy=0;" edge="1" parent="1" source="0DP7704pf6pHfkwj0pEW-36" target="0DP7704pf6pHfkwj0pEW-3">
          <mxGeometry width="50" height="50" relative="1" as="geometry">
            <mxPoint x="-958.25" y="310" as="sourcePoint" />
            <mxPoint x="-890.75" y="271.25" as="targetPoint" />
            <Array as="points">
              <mxPoint x="-920" y="280" />
            </Array>
          </mxGeometry>
        </mxCell>
        <mxCell id="0DP7704pf6pHfkwj0pEW-6" value="" style="endArrow=classic;html=1;rounded=0;entryX=0;entryY=0.5;entryDx=0;entryDy=0;exitX=1;exitY=0.5;exitDx=0;exitDy=0;" edge="1" parent="1" source="0DP7704pf6pHfkwj0pEW-3" target="0DP7704pf6pHfkwj0pEW-19">
          <mxGeometry width="50" height="50" relative="1" as="geometry">
            <mxPoint x="-870.75" y="321.25" as="sourcePoint" />
            <mxPoint x="-820.75" y="271.25" as="targetPoint" />
          </mxGeometry>
        </mxCell>
        <mxCell id="0DP7704pf6pHfkwj0pEW-17" value="" style="group" vertex="1" connectable="0" parent="1">
          <mxGeometry x="-760.75" y="210.25" width="40" height="60" as="geometry" />
        </mxCell>
        <mxCell id="0DP7704pf6pHfkwj0pEW-18" value="" style="group;strokeWidth=1;fillColor=#9A9B9E;strokeColor=default;container=0;" vertex="1" connectable="0" parent="0DP7704pf6pHfkwj0pEW-17">
          <mxGeometry width="40" height="60" as="geometry" />
        </mxCell>
        <mxCell id="0DP7704pf6pHfkwj0pEW-19" value="" style="rounded=0;whiteSpace=wrap;html=1;fillColor=#9A9B9E;" vertex="1" parent="0DP7704pf6pHfkwj0pEW-17">
          <mxGeometry width="40" height="60" as="geometry" />
        </mxCell>
        <mxCell id="0DP7704pf6pHfkwj0pEW-20" value="" style="triangle;whiteSpace=wrap;html=1;rotation=90;fillColor=#9A9B9E;" vertex="1" parent="0DP7704pf6pHfkwj0pEW-17">
          <mxGeometry x="10" y="-10" width="20" height="40" as="geometry" />
        </mxCell>
        <mxCell id="0DP7704pf6pHfkwj0pEW-29" value="" style="group" vertex="1" connectable="0" parent="1">
          <mxGeometry x="-520" y="370.25" width="40" height="60" as="geometry" />
        </mxCell>
        <mxCell id="0DP7704pf6pHfkwj0pEW-30" value="" style="group;strokeWidth=1;fillColor=#9A9B9E;strokeColor=default;container=0;" vertex="1" connectable="0" parent="0DP7704pf6pHfkwj0pEW-29">
          <mxGeometry width="40" height="60" as="geometry" />
        </mxCell>
        <mxCell id="0DP7704pf6pHfkwj0pEW-31" value="" style="rounded=0;whiteSpace=wrap;html=1;fillColor=#9A9B9E;" vertex="1" parent="0DP7704pf6pHfkwj0pEW-29">
          <mxGeometry width="40" height="60" as="geometry" />
        </mxCell>
        <mxCell id="0DP7704pf6pHfkwj0pEW-32" value="" style="triangle;whiteSpace=wrap;html=1;rotation=90;fillColor=#9A9B9E;" vertex="1" parent="0DP7704pf6pHfkwj0pEW-29">
          <mxGeometry x="10" y="-10" width="20" height="40" as="geometry" />
        </mxCell>
        <mxCell id="0DP7704pf6pHfkwj0pEW-34" value="" style="shape=trapezoid;perimeter=trapezoidPerimeter;whiteSpace=wrap;html=1;fixedSize=1;rotation=-90;fillColor=#F0F0F0;" vertex="1" parent="1">
          <mxGeometry x="-919" y="385.78" width="117.82" height="28.44" as="geometry" />
        </mxCell>
        <mxCell id="0DP7704pf6pHfkwj0pEW-35" value="$$p_0$$" style="rounded=0;whiteSpace=wrap;html=1;" vertex="1" parent="1">
          <mxGeometry x="-1000" y="180.25" width="40" height="40" as="geometry" />
        </mxCell>
        <mxCell id="0DP7704pf6pHfkwj0pEW-36" value="$$p_1$$" style="rounded=0;whiteSpace=wrap;html=1;" vertex="1" parent="1">
          <mxGeometry x="-1000" y="260.25" width="40" height="40" as="geometry" />
        </mxCell>
        <mxCell id="0DP7704pf6pHfkwj0pEW-38" value="" style="endArrow=classic;html=1;rounded=0;entryX=0;entryY=0;entryDx=0;entryDy=0;exitX=1;exitY=0.5;exitDx=0;exitDy=0;" edge="1" parent="1" source="0DP7704pf6pHfkwj0pEW-45">
          <mxGeometry width="50" height="50" relative="1" as="geometry">
            <mxPoint x="-959.5" y="330" as="sourcePoint" />
            <mxPoint x="-874.8921356237308" y="385.85786437626905" as="targetPoint" />
            <Array as="points">
              <mxPoint x="-912" y="359.75" />
            </Array>
          </mxGeometry>
        </mxCell>
        <mxCell id="0DP7704pf6pHfkwj0pEW-39" value="" style="endArrow=classic;html=1;rounded=0;entryX=0;entryY=1;entryDx=0;entryDy=0;exitX=1;exitY=0.5;exitDx=0;exitDy=0;" edge="1" parent="1" source="0DP7704pf6pHfkwj0pEW-46">
          <mxGeometry width="50" height="50" relative="1" as="geometry">
            <mxPoint x="-958.25" y="469.75" as="sourcePoint" />
            <mxPoint x="-874.8921356237308" y="414.14213562373084" as="targetPoint" />
            <Array as="points">
              <mxPoint x="-920" y="439.75" />
            </Array>
          </mxGeometry>
        </mxCell>
        <mxCell id="0DP7704pf6pHfkwj0pEW-40" value="" style="endArrow=classic;html=1;rounded=0;entryX=0;entryY=0.5;entryDx=0;entryDy=0;exitX=0.5;exitY=1;exitDx=0;exitDy=0;" edge="1" parent="1" source="0DP7704pf6pHfkwj0pEW-34" target="0DP7704pf6pHfkwj0pEW-43">
          <mxGeometry width="50" height="50" relative="1" as="geometry">
            <mxPoint x="-840.7499999999999" y="400" as="sourcePoint" />
            <mxPoint x="-820.75" y="431" as="targetPoint" />
            <Array as="points">
              <mxPoint x="-810" y="400" />
            </Array>
          </mxGeometry>
        </mxCell>
        <mxCell id="0DP7704pf6pHfkwj0pEW-41" value="" style="group" vertex="1" connectable="0" parent="1">
          <mxGeometry x="-760.75" y="370" width="40" height="60" as="geometry" />
        </mxCell>
        <mxCell id="0DP7704pf6pHfkwj0pEW-42" value="" style="group;strokeWidth=1;fillColor=#9A9B9E;strokeColor=default;container=0;" vertex="1" connectable="0" parent="0DP7704pf6pHfkwj0pEW-41">
          <mxGeometry width="40" height="60" as="geometry" />
        </mxCell>
        <mxCell id="0DP7704pf6pHfkwj0pEW-43" value="" style="rounded=0;whiteSpace=wrap;html=1;fillColor=#9A9B9E;" vertex="1" parent="0DP7704pf6pHfkwj0pEW-41">
          <mxGeometry width="40" height="60" as="geometry" />
        </mxCell>
        <mxCell id="0DP7704pf6pHfkwj0pEW-44" value="" style="triangle;whiteSpace=wrap;html=1;rotation=90;fillColor=#9A9B9E;" vertex="1" parent="0DP7704pf6pHfkwj0pEW-41">
          <mxGeometry x="10" y="-10" width="20" height="40" as="geometry" />
        </mxCell>
        <mxCell id="0DP7704pf6pHfkwj0pEW-45" value="$$p_0$$" style="rounded=0;whiteSpace=wrap;html=1;" vertex="1" parent="1">
          <mxGeometry x="-1000" y="340" width="40" height="40" as="geometry" />
        </mxCell>
        <mxCell id="0DP7704pf6pHfkwj0pEW-46" value="$$p_1$$" style="rounded=0;whiteSpace=wrap;html=1;" vertex="1" parent="1">
          <mxGeometry x="-1000" y="420" width="40" height="40" as="geometry" />
        </mxCell>
        <mxCell id="0DP7704pf6pHfkwj0pEW-47" value="" style="endArrow=none;html=1;rounded=0;entryX=0.5;entryY=1;entryDx=0;entryDy=0;exitX=1;exitY=0.5;exitDx=0;exitDy=0;" edge="1" parent="1" source="0DP7704pf6pHfkwj0pEW-34" target="0DP7704pf6pHfkwj0pEW-3">
          <mxGeometry width="50" height="50" relative="1" as="geometry">
            <mxPoint x="-880" y="350" as="sourcePoint" />
            <mxPoint x="-830" y="300" as="targetPoint" />
          </mxGeometry>
        </mxCell>
        <mxCell id="0DP7704pf6pHfkwj0pEW-48" value="$$1$$" style="text;html=1;align=center;verticalAlign=middle;whiteSpace=wrap;rounded=0;" vertex="1" parent="1">
          <mxGeometry x="-890.75" y="370" width="50.75" height="30" as="geometry" />
        </mxCell>
        <mxCell id="0DP7704pf6pHfkwj0pEW-49" value="$$0$$" style="text;html=1;align=center;verticalAlign=middle;whiteSpace=wrap;rounded=0;" vertex="1" parent="1">
          <mxGeometry x="-890.75" y="400" width="50.75" height="30" as="geometry" />
        </mxCell>
        <mxCell id="0DP7704pf6pHfkwj0pEW-50" value="&lt;font style=&quot;font-size: 24px;&quot;&gt;$$&amp;gt;$$&lt;/font&gt;" style="ellipse;whiteSpace=wrap;html=1;aspect=fixed;fillColor=#F0F0F0;" vertex="1" parent="1">
          <mxGeometry x="-880.75" y="680" width="40" height="40" as="geometry" />
        </mxCell>
        <mxCell id="0DP7704pf6pHfkwj0pEW-51" value="" style="endArrow=classic;html=1;rounded=0;entryX=0;entryY=0;entryDx=0;entryDy=0;exitX=1;exitY=0.5;exitDx=0;exitDy=0;" edge="1" parent="1" source="0DP7704pf6pHfkwj0pEW-58" target="0DP7704pf6pHfkwj0pEW-50">
          <mxGeometry width="50" height="50" relative="1" as="geometry">
            <mxPoint x="-959.5" y="630" as="sourcePoint" />
            <mxPoint x="-880.75" y="661" as="targetPoint" />
            <Array as="points">
              <mxPoint x="-912" y="659.75" />
            </Array>
          </mxGeometry>
        </mxCell>
        <mxCell id="0DP7704pf6pHfkwj0pEW-52" value="" style="endArrow=classic;html=1;rounded=0;entryX=0;entryY=1;entryDx=0;entryDy=0;exitX=1;exitY=0.5;exitDx=0;exitDy=0;" edge="1" parent="1" source="0DP7704pf6pHfkwj0pEW-59" target="0DP7704pf6pHfkwj0pEW-50">
          <mxGeometry width="50" height="50" relative="1" as="geometry">
            <mxPoint x="-958.25" y="769.75" as="sourcePoint" />
            <mxPoint x="-890.75" y="731" as="targetPoint" />
            <Array as="points">
              <mxPoint x="-920" y="739.75" />
            </Array>
          </mxGeometry>
        </mxCell>
        <mxCell id="0DP7704pf6pHfkwj0pEW-53" value="" style="endArrow=classic;html=1;rounded=0;entryX=0;entryY=0.5;entryDx=0;entryDy=0;exitX=1;exitY=0.5;exitDx=0;exitDy=0;" edge="1" parent="1" source="0DP7704pf6pHfkwj0pEW-50" target="0DP7704pf6pHfkwj0pEW-56">
          <mxGeometry width="50" height="50" relative="1" as="geometry">
            <mxPoint x="-870.75" y="781" as="sourcePoint" />
            <mxPoint x="-820.75" y="731" as="targetPoint" />
          </mxGeometry>
        </mxCell>
        <mxCell id="0DP7704pf6pHfkwj0pEW-54" value="" style="group" vertex="1" connectable="0" parent="1">
          <mxGeometry x="-760.75" y="670" width="40" height="60" as="geometry" />
        </mxCell>
        <mxCell id="0DP7704pf6pHfkwj0pEW-55" value="" style="group;strokeWidth=1;fillColor=#9A9B9E;strokeColor=default;container=0;" vertex="1" connectable="0" parent="0DP7704pf6pHfkwj0pEW-54">
          <mxGeometry width="40" height="60" as="geometry" />
        </mxCell>
        <mxCell id="0DP7704pf6pHfkwj0pEW-56" value="" style="rounded=0;whiteSpace=wrap;html=1;fillColor=#9A9B9E;" vertex="1" parent="0DP7704pf6pHfkwj0pEW-54">
          <mxGeometry width="40" height="60" as="geometry" />
        </mxCell>
        <mxCell id="0DP7704pf6pHfkwj0pEW-57" value="" style="triangle;whiteSpace=wrap;html=1;rotation=90;fillColor=#9A9B9E;" vertex="1" parent="0DP7704pf6pHfkwj0pEW-54">
          <mxGeometry x="10" y="-10" width="20" height="40" as="geometry" />
        </mxCell>
        <mxCell id="0DP7704pf6pHfkwj0pEW-58" value="$$p_2$$" style="rounded=0;whiteSpace=wrap;html=1;" vertex="1" parent="1">
          <mxGeometry x="-1000" y="640" width="40" height="40" as="geometry" />
        </mxCell>
        <mxCell id="0DP7704pf6pHfkwj0pEW-59" value="$$p_3$$" style="rounded=0;whiteSpace=wrap;html=1;" vertex="1" parent="1">
          <mxGeometry x="-1000" y="720" width="40" height="40" as="geometry" />
        </mxCell>
        <mxCell id="0DP7704pf6pHfkwj0pEW-63" value="" style="endArrow=classic;html=1;rounded=0;exitX=1;exitY=0.5;exitDx=0;exitDy=0;" edge="1" parent="1" source="0DP7704pf6pHfkwj0pEW-31">
          <mxGeometry width="50" height="50" relative="1" as="geometry">
            <mxPoint x="-450" y="460" as="sourcePoint" />
            <mxPoint x="-440" y="400" as="targetPoint" />
          </mxGeometry>
        </mxCell>
        <mxCell id="0DP7704pf6pHfkwj0pEW-69" value="" style="shape=trapezoid;perimeter=trapezoidPerimeter;whiteSpace=wrap;html=1;fixedSize=1;rotation=-90;fillColor=#F0F0F0;" vertex="1" parent="1">
          <mxGeometry x="-919" y="545.78" width="117.82" height="28.44" as="geometry" />
        </mxCell>
        <mxCell id="0DP7704pf6pHfkwj0pEW-70" value="" style="endArrow=classic;html=1;rounded=0;entryX=0;entryY=0;entryDx=0;entryDy=0;exitX=1;exitY=0.5;exitDx=0;exitDy=0;" edge="1" parent="1" source="0DP7704pf6pHfkwj0pEW-77">
          <mxGeometry width="50" height="50" relative="1" as="geometry">
            <mxPoint x="-959.5" y="490" as="sourcePoint" />
            <mxPoint x="-874.8921356237308" y="545.857864376269" as="targetPoint" />
            <Array as="points">
              <mxPoint x="-912" y="519.75" />
            </Array>
          </mxGeometry>
        </mxCell>
        <mxCell id="0DP7704pf6pHfkwj0pEW-71" value="" style="endArrow=classic;html=1;rounded=0;entryX=0;entryY=1;entryDx=0;entryDy=0;exitX=1;exitY=0.5;exitDx=0;exitDy=0;" edge="1" parent="1" source="0DP7704pf6pHfkwj0pEW-78">
          <mxGeometry width="50" height="50" relative="1" as="geometry">
            <mxPoint x="-958.25" y="629.75" as="sourcePoint" />
            <mxPoint x="-874.8921356237308" y="574.1421356237308" as="targetPoint" />
            <Array as="points">
              <mxPoint x="-920" y="599.75" />
            </Array>
          </mxGeometry>
        </mxCell>
        <mxCell id="0DP7704pf6pHfkwj0pEW-72" value="" style="endArrow=classic;html=1;rounded=0;entryX=0;entryY=0.5;entryDx=0;entryDy=0;exitX=0.5;exitY=1;exitDx=0;exitDy=0;" edge="1" parent="1" source="0DP7704pf6pHfkwj0pEW-69" target="0DP7704pf6pHfkwj0pEW-75">
          <mxGeometry width="50" height="50" relative="1" as="geometry">
            <mxPoint x="-840.7499999999999" y="560" as="sourcePoint" />
            <mxPoint x="-820.75" y="591" as="targetPoint" />
            <Array as="points">
              <mxPoint x="-810" y="560" />
            </Array>
          </mxGeometry>
        </mxCell>
        <mxCell id="0DP7704pf6pHfkwj0pEW-73" value="" style="group" vertex="1" connectable="0" parent="1">
          <mxGeometry x="-760.75" y="530" width="40" height="60" as="geometry" />
        </mxCell>
        <mxCell id="0DP7704pf6pHfkwj0pEW-74" value="" style="group;strokeWidth=1;fillColor=#9A9B9E;strokeColor=default;container=0;" vertex="1" connectable="0" parent="0DP7704pf6pHfkwj0pEW-73">
          <mxGeometry width="40" height="60" as="geometry" />
        </mxCell>
        <mxCell id="0DP7704pf6pHfkwj0pEW-75" value="" style="rounded=0;whiteSpace=wrap;html=1;fillColor=#9A9B9E;" vertex="1" parent="0DP7704pf6pHfkwj0pEW-73">
          <mxGeometry width="40" height="60" as="geometry" />
        </mxCell>
        <mxCell id="0DP7704pf6pHfkwj0pEW-76" value="" style="triangle;whiteSpace=wrap;html=1;rotation=90;fillColor=#9A9B9E;" vertex="1" parent="0DP7704pf6pHfkwj0pEW-73">
          <mxGeometry x="10" y="-10" width="20" height="40" as="geometry" />
        </mxCell>
        <mxCell id="0DP7704pf6pHfkwj0pEW-77" value="$$p_2$$" style="rounded=0;whiteSpace=wrap;html=1;" vertex="1" parent="1">
          <mxGeometry x="-1000" y="500" width="40" height="40" as="geometry" />
        </mxCell>
        <mxCell id="0DP7704pf6pHfkwj0pEW-78" value="$$p_3$$" style="rounded=0;whiteSpace=wrap;html=1;" vertex="1" parent="1">
          <mxGeometry x="-1000" y="580" width="40" height="40" as="geometry" />
        </mxCell>
        <mxCell id="0DP7704pf6pHfkwj0pEW-79" value="$$1$$" style="text;html=1;align=center;verticalAlign=middle;whiteSpace=wrap;rounded=0;" vertex="1" parent="1">
          <mxGeometry x="-890.75" y="530" width="50.75" height="30" as="geometry" />
        </mxCell>
        <mxCell id="0DP7704pf6pHfkwj0pEW-80" value="$$0$$" style="text;html=1;align=center;verticalAlign=middle;whiteSpace=wrap;rounded=0;" vertex="1" parent="1">
          <mxGeometry x="-890.75" y="560" width="50.75" height="30" as="geometry" />
        </mxCell>
        <mxCell id="0DP7704pf6pHfkwj0pEW-82" value="" style="endArrow=none;html=1;rounded=0;entryX=0;entryY=0.5;entryDx=0;entryDy=0;exitX=0.5;exitY=0;exitDx=0;exitDy=0;" edge="1" parent="1" source="0DP7704pf6pHfkwj0pEW-50" target="0DP7704pf6pHfkwj0pEW-69">
          <mxGeometry width="50" height="50" relative="1" as="geometry">
            <mxPoint x="-880" y="710" as="sourcePoint" />
            <mxPoint x="-830" y="660" as="targetPoint" />
          </mxGeometry>
        </mxCell>
        <mxCell id="0DP7704pf6pHfkwj0pEW-83" value="&lt;font style=&quot;font-size: 24px;&quot;&gt;$$&amp;gt;$$&lt;/font&gt;" style="ellipse;whiteSpace=wrap;html=1;aspect=fixed;fillColor=#F0F0F0;" vertex="1" parent="1">
          <mxGeometry x="-640" y="380" width="40" height="40" as="geometry" />
        </mxCell>
        <mxCell id="0DP7704pf6pHfkwj0pEW-84" value="&lt;font style=&quot;font-size: 24px;&quot;&gt;$$&amp;gt;$$&lt;/font&gt;" style="ellipse;whiteSpace=wrap;html=1;aspect=fixed;fillColor=#F0F0F0;" vertex="1" parent="1">
          <mxGeometry x="-640" y="540" width="40" height="40" as="geometry" />
        </mxCell>
        <mxCell id="0DP7704pf6pHfkwj0pEW-85" value="" style="endArrow=classic;html=1;rounded=0;exitX=1;exitY=0.5;exitDx=0;exitDy=0;entryX=0;entryY=0;entryDx=0;entryDy=0;" edge="1" parent="1" source="0DP7704pf6pHfkwj0pEW-19" target="0DP7704pf6pHfkwj0pEW-83">
          <mxGeometry width="50" height="50" relative="1" as="geometry">
            <mxPoint x="-630" y="300" as="sourcePoint" />
            <mxPoint x="-580" y="250" as="targetPoint" />
            <Array as="points">
              <mxPoint x="-660" y="240" />
            </Array>
          </mxGeometry>
        </mxCell>
        <mxCell id="0DP7704pf6pHfkwj0pEW-86" value="" style="endArrow=classic;html=1;rounded=0;exitX=1;exitY=0.5;exitDx=0;exitDy=0;entryX=0;entryY=1;entryDx=0;entryDy=0;" edge="1" parent="1" source="0DP7704pf6pHfkwj0pEW-75" target="0DP7704pf6pHfkwj0pEW-83">
          <mxGeometry width="50" height="50" relative="1" as="geometry">
            <mxPoint x="-690" y="560" as="sourcePoint" />
            <mxPoint x="-640" y="510" as="targetPoint" />
            <Array as="points">
              <mxPoint x="-660" y="560" />
            </Array>
          </mxGeometry>
        </mxCell>
        <mxCell id="0DP7704pf6pHfkwj0pEW-87" value="" style="endArrow=classic;html=1;rounded=0;exitX=1;exitY=0.5;exitDx=0;exitDy=0;entryX=0;entryY=0;entryDx=0;entryDy=0;" edge="1" parent="1" source="0DP7704pf6pHfkwj0pEW-43" target="0DP7704pf6pHfkwj0pEW-84">
          <mxGeometry width="50" height="50" relative="1" as="geometry">
            <mxPoint x="-690" y="510" as="sourcePoint" />
            <mxPoint x="-640" y="460" as="targetPoint" />
            <Array as="points">
              <mxPoint x="-660" y="400" />
            </Array>
          </mxGeometry>
        </mxCell>
        <mxCell id="0DP7704pf6pHfkwj0pEW-88" value="" style="endArrow=classic;html=1;rounded=0;exitX=1;exitY=0.5;exitDx=0;exitDy=0;entryX=0;entryY=1;entryDx=0;entryDy=0;" edge="1" parent="1" source="0DP7704pf6pHfkwj0pEW-56" target="0DP7704pf6pHfkwj0pEW-84">
          <mxGeometry width="50" height="50" relative="1" as="geometry">
            <mxPoint x="-660" y="680" as="sourcePoint" />
            <mxPoint x="-610" y="630" as="targetPoint" />
            <Array as="points">
              <mxPoint x="-660" y="700" />
            </Array>
          </mxGeometry>
        </mxCell>
        <mxCell id="0DP7704pf6pHfkwj0pEW-89" value="" style="group" vertex="1" connectable="0" parent="1">
          <mxGeometry x="-520" y="530" width="40" height="60" as="geometry" />
        </mxCell>
        <mxCell id="0DP7704pf6pHfkwj0pEW-90" value="" style="group;strokeWidth=1;fillColor=#9A9B9E;strokeColor=default;container=0;" vertex="1" connectable="0" parent="0DP7704pf6pHfkwj0pEW-89">
          <mxGeometry width="40" height="60" as="geometry" />
        </mxCell>
        <mxCell id="0DP7704pf6pHfkwj0pEW-91" value="" style="rounded=0;whiteSpace=wrap;html=1;fillColor=#9A9B9E;" vertex="1" parent="0DP7704pf6pHfkwj0pEW-89">
          <mxGeometry width="40" height="60" as="geometry" />
        </mxCell>
        <mxCell id="0DP7704pf6pHfkwj0pEW-92" value="" style="triangle;whiteSpace=wrap;html=1;rotation=90;fillColor=#9A9B9E;" vertex="1" parent="0DP7704pf6pHfkwj0pEW-89">
          <mxGeometry x="10" y="-10" width="20" height="40" as="geometry" />
        </mxCell>
        <mxCell id="0DP7704pf6pHfkwj0pEW-93" value="" style="endArrow=classic;html=1;rounded=0;exitX=1;exitY=0.5;exitDx=0;exitDy=0;" edge="1" parent="1" source="0DP7704pf6pHfkwj0pEW-91">
          <mxGeometry width="50" height="50" relative="1" as="geometry">
            <mxPoint x="-450" y="619.75" as="sourcePoint" />
            <mxPoint x="-440" y="559.75" as="targetPoint" />
          </mxGeometry>
        </mxCell>
        <mxCell id="0DP7704pf6pHfkwj0pEW-94" value="" style="endArrow=classic;html=1;rounded=0;exitX=1;exitY=0.5;exitDx=0;exitDy=0;entryX=0;entryY=0.5;entryDx=0;entryDy=0;" edge="1" parent="1" source="0DP7704pf6pHfkwj0pEW-83" target="0DP7704pf6pHfkwj0pEW-31">
          <mxGeometry width="50" height="50" relative="1" as="geometry">
            <mxPoint x="-590" y="500" as="sourcePoint" />
            <mxPoint x="-540" y="450" as="targetPoint" />
          </mxGeometry>
        </mxCell>
        <mxCell id="0DP7704pf6pHfkwj0pEW-95" value="" style="endArrow=classic;html=1;rounded=0;exitX=1;exitY=0.5;exitDx=0;exitDy=0;entryX=0;entryY=0.5;entryDx=0;entryDy=0;" edge="1" parent="1" source="0DP7704pf6pHfkwj0pEW-84" target="0DP7704pf6pHfkwj0pEW-91">
          <mxGeometry width="50" height="50" relative="1" as="geometry">
            <mxPoint x="-560" y="540" as="sourcePoint" />
            <mxPoint x="-540" y="590" as="targetPoint" />
          </mxGeometry>
        </mxCell>
      </root>
    </mxGraphModel>
  </diagram>
</mxfile>
